<svg width="85" height="90" viewBox="0 0 85 90" fill="none" xmlns="http://www.w3.org/2000/svg">
<path d="M42.6029 41.3532C42.6029 41.8339 42.2128 42.2239 41.7322 42.2239H40.8615C30.5991 42.2239 22.1844 34.2098 21.7055 23.9787C21.6811 23.4981 22.0538 23.0906 22.5344 23.068C23.0185 23.0506 23.4243 23.4163 23.4434 23.8969C23.8806 33.1963 31.5308 40.4808 40.8597 40.4808H41.7304C42.2111 40.4808 42.6012 40.8708 42.6012 41.3515L42.6029 41.3532ZM42.6029 33.5167C37.093 33.5167 32.4293 29.8387 30.9265 24.8094H38.2493C38.7299 24.8094 39.12 24.4193 39.12 23.9387C39.12 23.4581 38.7299 23.068 38.2493 23.068H30.5521C30.4702 22.4968 30.4127 21.9186 30.4127 21.3265V18.7143H38.2493C38.7299 18.7143 39.12 18.3242 39.12 17.8436C39.12 17.363 38.7299 16.9729 38.2493 16.9729H30.4127V14.3607C30.4127 13.7686 30.4702 13.1904 30.5521 12.6192H38.2493C38.7299 12.6192 39.12 12.2292 39.12 11.7485C39.12 11.2679 38.7299 10.8778 38.2493 10.8778H30.9265C32.4293 5.84848 37.093 2.17053 42.6029 2.17053C48.1129 2.17053 52.7765 5.84848 54.2794 10.8778H46.9565C46.4759 10.8778 46.0858 11.2679 46.0858 11.7485C46.0858 12.2292 46.4759 12.6192 46.9565 12.6192H54.6538C54.7356 13.1904 54.7931 13.7686 54.7931 14.3607V16.9729H46.9565C46.4759 16.9729 46.0858 17.363 46.0858 17.8436C46.0858 18.3242 46.4759 18.7143 46.9565 18.7143H54.7931V21.3265C54.7931 21.5999 54.7826 21.8716 54.7652 22.1398C54.7339 22.6204 55.0978 23.0349 55.5785 23.0662C56.0138 23.0906 56.4718 22.7353 56.5032 22.2547C56.5241 21.9482 56.5345 21.6382 56.5345 21.3265V14.3607C56.5345 6.67915 50.2845 0.429077 42.6029 0.429077C34.9214 0.429077 28.6713 6.67915 28.6713 14.3607V21.3265C28.6713 29.0081 34.9214 35.2581 42.6029 35.2581C43.0836 35.2581 43.4736 34.8681 43.4736 34.3874C43.4736 33.9068 43.0836 33.5167 42.6029 33.5167ZM62.4694 32.646C62.4694 33.7692 61.9052 34.8001 60.9596 35.4044L51.1291 41.7015C50.5857 42.0515 49.9762 42.2274 49.3632 42.2274C48.8251 42.2274 48.2888 42.0916 47.789 41.8182C46.7232 41.2348 46.0841 40.1603 46.0841 38.9431V26.3489C46.0841 25.1316 46.7214 24.0571 47.789 23.4737C48.8582 22.8903 50.1051 22.9321 51.1273 23.5887L60.9596 29.8875C61.9052 30.4918 62.4694 31.5245 62.4694 32.646ZM60.728 32.646C60.728 32.1131 60.4702 31.6429 60.0209 31.3555L50.1887 25.0567C49.9344 24.893 49.6471 24.8112 49.3615 24.8112C49.109 24.8112 48.8582 24.8756 48.6249 25.0027C48.1251 25.2761 47.8255 25.7794 47.8255 26.3489V38.9431C47.8255 39.5125 48.1233 40.0175 48.6231 40.2892C49.1264 40.5626 49.708 40.5417 50.1887 40.2352L60.0192 33.9381C60.4685 33.649 60.7262 33.1788 60.7262 32.6442L60.728 32.646ZM62.6697 23.0697C62.1908 23.0575 61.7798 23.4197 61.7606 23.9004C61.7328 24.4611 61.6805 25.0132 61.6022 25.5582C61.5343 26.0337 61.8651 26.476 62.3423 26.5439C62.3823 26.5491 62.4259 26.5526 62.4659 26.5526C62.8908 26.5526 63.2635 26.2392 63.3262 25.8055C63.4115 25.2065 63.4707 24.597 63.4986 23.9805C63.523 23.4998 63.1503 23.0906 62.6697 23.0697Z" fill="#B1B5C0"/>
<path d="M7.87354 61.1081L9.104 62.3386L7.87354 63.569L6.64307 62.3386L7.87354 61.1081ZM7.99072 71.8698C9.09749 71.8698 9.96012 71.6875 10.5786 71.3229C11.1971 70.9649 11.6333 70.4863 11.8872 69.8874C12.1411 69.2884 12.2681 68.6374 12.2681 67.9343C12.2681 67.2051 12.1737 66.4792 11.9849 65.7565C11.7961 65.0274 11.6073 64.4024 11.4185 63.8815L12.8052 63.3151C13.0916 64.1159 13.3097 64.8972 13.4595 65.6589C13.6092 66.4141 13.6841 67.1367 13.6841 67.8268C13.6841 68.8946 13.4888 69.8418 13.0981 70.6686C12.7075 71.502 12.0923 72.153 11.2524 72.6218C10.4191 73.097 9.33187 73.3347 7.99072 73.3347C6.65609 73.3347 5.57536 73.0938 4.74854 72.612C3.92822 72.1302 3.32926 71.4727 2.95166 70.6393C2.57406 69.8125 2.38525 68.8783 2.38525 67.8366C2.38525 67.1791 2.45036 66.5052 2.58057 65.8151C2.71077 65.125 2.89307 64.4479 3.12744 63.7839L4.4165 64.3015C4.23421 64.8874 4.08122 65.4896 3.95752 66.1081C3.83382 66.7201 3.77197 67.3158 3.77197 67.8952C3.77197 68.6569 3.91195 69.3373 4.19189 69.9362C4.47184 70.5352 4.91781 71.0072 5.52979 71.3522C6.14827 71.6973 6.96859 71.8698 7.99072 71.8698ZM17.8442 67.5534C18.6646 67.5534 19.3644 67.4818 19.9438 67.3386C20.5233 67.1953 20.966 66.974 21.272 66.6745C21.5845 66.3685 21.7407 65.9649 21.7407 65.4636C21.7407 65.0078 21.591 64.5488 21.2915 64.0866C20.992 63.6244 20.5461 63.1556 19.9536 62.6804C19.3612 62.2051 18.6255 61.7266 17.7466 61.2448L18.3911 59.9655C19.1593 60.3627 19.8364 60.7761 20.4224 61.2057C21.0148 61.6354 21.5096 62.0814 21.9067 62.5436C22.3104 62.9994 22.6131 63.4681 22.8149 63.9499C23.0168 64.4317 23.1177 64.9265 23.1177 65.4343C23.1177 66.2481 22.9289 66.9219 22.5513 67.4557C22.1802 67.9831 21.6138 68.3737 20.8521 68.6276C20.0968 68.875 19.1431 68.9987 17.9907 68.9987C17.6001 68.9987 17.216 68.9824 16.8384 68.9499C16.4673 68.9108 16.1157 68.8587 15.7837 68.7936V67.319C16.1743 67.3972 16.5389 67.4557 16.8774 67.4948C17.2225 67.5339 17.5448 67.5534 17.8442 67.5534ZM27.1021 55.7175V69.0085H25.7349V55.7175H27.1021ZM31.77 67.5534C32.5903 67.5534 33.2902 67.4818 33.8696 67.3386C34.4491 67.1953 34.8918 66.974 35.1978 66.6745C35.5103 66.3685 35.6665 65.9649 35.6665 65.4636C35.6665 65.0078 35.5168 64.5488 35.2173 64.0866C34.9178 63.6244 34.4718 63.1556 33.8794 62.6804C33.2869 62.2051 32.5513 61.7266 31.6724 61.2448L32.3169 59.9655C33.0851 60.3627 33.7622 60.7761 34.3481 61.2057C34.9406 61.6354 35.4354 62.0814 35.8325 62.5436C36.2362 62.9994 36.5389 63.4681 36.7407 63.9499C36.9425 64.4317 37.0435 64.9265 37.0435 65.4343C37.0435 66.2481 36.8547 66.9219 36.4771 67.4557C36.106 67.9831 35.5396 68.3737 34.7778 68.6276C34.0226 68.875 33.0688 68.9987 31.9165 68.9987C31.5259 68.9987 31.1418 68.9824 30.7642 68.9499C30.3931 68.9108 30.0415 68.8587 29.7095 68.7936V67.319C30.1001 67.3972 30.4647 67.4557 30.8032 67.4948C31.1483 67.5339 31.4705 67.5534 31.77 67.5534ZM59.9536 56.7331L61.0962 57.8757L59.9536 59.0182L58.811 57.8757L59.9536 56.7331ZM61.4966 59.0671L62.6392 60.2097L61.4966 61.3522L60.354 60.2097L61.4966 59.0671ZM58.4106 59.0671L59.5532 60.2097L58.4106 61.3522L57.2681 60.2097L58.4106 59.0671ZM57.8638 69.0182C57.395 69.0182 56.9849 68.9531 56.6333 68.8229C56.2882 68.6927 56.0116 68.5397 55.8032 68.364C55.8293 69.4707 55.647 70.4538 55.2563 71.3132C54.8722 72.1725 54.2603 72.8431 53.4204 73.3249C52.5806 73.8067 51.4803 74.0475 50.1196 74.0475C48.785 74.0475 47.7043 73.8067 46.8774 73.3249C46.0571 72.8431 45.4582 72.1856 45.0806 71.3522C44.703 70.5254 44.5142 69.5912 44.5142 68.5495C44.5142 67.8919 44.5793 67.2181 44.7095 66.528C44.8397 65.8379 45.022 65.1608 45.2563 64.4968L46.5454 65.0143C46.3631 65.6003 46.2101 66.2025 46.0864 66.821C45.9627 67.433 45.9009 68.0287 45.9009 68.6081C45.9009 69.3698 46.0409 70.0502 46.3208 70.6491C46.6007 71.2481 47.0467 71.7201 47.6587 72.0651C48.2772 72.4102 49.0975 72.5827 50.1196 72.5827C51.2264 72.5827 52.089 72.4004 52.7075 72.0358C53.326 71.6778 53.7622 71.1992 54.0161 70.6003C54.27 70.0013 54.397 69.3503 54.397 68.6472C54.397 67.918 54.3026 67.1921 54.1138 66.4694C53.925 65.7403 53.7362 65.1153 53.5474 64.5944L54.9341 64.028L55.4712 65.7468C55.66 66.3262 55.9432 66.7689 56.3208 67.0749C56.7049 67.3809 57.2257 67.5339 57.8833 67.5339C58.619 67.5339 59.1235 67.3353 59.397 66.9382C59.6769 66.5345 59.8169 65.9649 59.8169 65.2292C59.8169 65.1185 59.8136 64.9981 59.8071 64.8679C59.8006 64.7377 59.7909 64.5847 59.7778 64.4089C59.7648 64.2266 59.7453 64.0182 59.7192 63.7839L61.0571 63.6179L61.2036 65.5026C61.2427 66.0625 61.3957 66.541 61.6626 66.9382C61.936 67.3353 62.3722 67.5339 62.9712 67.5339C63.3618 67.5339 63.6711 67.4362 63.8989 67.2409C64.1268 67.0391 64.2896 66.7722 64.3872 66.4401C64.4914 66.1081 64.5435 65.75 64.5435 65.3659C64.5435 65.0534 64.5207 64.7409 64.4751 64.4284C64.436 64.1159 64.3905 63.8197 64.3384 63.5397C64.2863 63.2533 64.231 63.0059 64.1724 62.7975L65.5591 62.4265C65.6698 62.8431 65.7576 63.2858 65.8228 63.7546C65.8944 64.2233 65.9302 64.6921 65.9302 65.1608C65.9302 65.8314 65.8358 66.4597 65.647 67.0456C65.4582 67.6315 65.1489 68.1068 64.7192 68.4714C64.2961 68.8294 63.7166 69.0117 62.981 69.0182C62.3169 69.0182 61.7961 68.875 61.4185 68.5886C61.0409 68.2956 60.7479 67.9115 60.5396 67.4362C60.2271 67.9636 59.8494 68.3607 59.4067 68.6276C58.9705 68.888 58.4562 69.0182 57.8638 69.0182ZM71.145 62.1725C71.6919 62.1725 72.1802 62.2995 72.6099 62.5534C73.0396 62.8073 73.4041 63.1719 73.7036 63.6472C74.0096 64.1159 74.244 64.6791 74.4067 65.3366C74.5695 65.9942 74.6541 66.7266 74.6606 67.5339H75.979V69.0182H74.5337C74.3905 69.8255 74.104 70.5742 73.6743 71.2643C73.2446 71.961 72.6229 72.5632 71.8091 73.071C71.0018 73.5788 69.9504 73.9629 68.6548 74.2233L68.1665 72.944C69.1431 72.7422 69.9829 72.4655 70.686 72.114C71.3892 71.7689 71.9556 71.3392 72.3853 70.8249C72.8149 70.3171 73.1047 69.7149 73.2544 69.0182H71.5552C70.3833 69.0182 69.4979 68.7871 68.8989 68.3249C68.3065 67.8627 68.0103 67.1432 68.0103 66.1667C68.0103 65.6914 68.0786 65.2194 68.2153 64.7507C68.3521 64.2819 68.5539 63.8522 68.8208 63.4616C69.0877 63.071 69.4165 62.7585 69.8071 62.5241C70.1978 62.2897 70.6437 62.1725 71.145 62.1725ZM71.4575 67.5339H73.3325C73.3 66.9349 73.2349 66.3978 73.1372 65.9225C73.0461 65.4408 72.9126 65.0306 72.7368 64.6921C72.5675 64.347 72.3494 64.0866 72.0825 63.9108C71.8156 63.7285 71.4933 63.6374 71.1157 63.6374C70.6795 63.6374 70.3312 63.7741 70.0708 64.0475C69.8169 64.321 69.6346 64.6498 69.5239 65.0339C69.4198 65.418 69.3677 65.7761 69.3677 66.1081C69.3677 66.6289 69.5402 66.9968 69.8853 67.2116C70.2368 67.4265 70.7609 67.5339 71.4575 67.5339ZM76.5942 57.2311V56.3132L83.938 53.3347V54.2526L76.5942 57.2311ZM77.6392 59.5065C78.0688 59.8125 78.5311 60.1413 79.0259 60.4929C79.5272 60.8444 80.0155 61.2188 80.4907 61.6159C80.9725 62.0065 81.4119 62.4232 81.8091 62.8659C82.2062 63.3086 82.522 63.7709 82.7563 64.2526C82.9907 64.7344 83.1079 65.2324 83.1079 65.7468C83.1079 66.541 82.9126 67.1791 82.522 67.6608C82.1379 68.1361 81.5649 68.4811 80.8032 68.696C80.048 68.9108 79.1073 69.0182 77.981 69.0182H75.5981V67.5339H77.9712C78.785 67.5339 79.4686 67.485 80.022 67.3874C80.5754 67.2897 80.992 67.1074 81.272 66.8405C81.5584 66.5736 81.7017 66.196 81.7017 65.7077C81.7017 65.3431 81.5942 64.9818 81.3794 64.6237C81.1711 64.2591 80.8911 63.9043 80.5396 63.5593C80.188 63.2077 79.7974 62.8659 79.3677 62.5339C78.9445 62.1953 78.5148 61.8698 78.0786 61.5573C77.6489 61.2383 77.2485 60.9323 76.8774 60.6393C76.6821 60.4831 76.5161 60.3008 76.3794 60.0925C76.2492 59.8841 76.1841 59.6758 76.1841 59.4675C76.1841 59.2136 76.2622 58.9857 76.4185 58.7839C76.5812 58.5755 76.8156 58.4128 77.1216 58.2956L84.0063 55.4929V56.9284L77.6392 59.5065Z" fill="#B1B5C0"/>
</svg>
