<svg width="73" height="79" viewBox="0 0 73 79" fill="none" xmlns="http://www.w3.org/2000/svg">
<path d="M5.00114 62.9568L0.237793 54.6209L18.951 43.5632L31.3697 39.6504L18.951 35.7376L0.237793 24.6799L5.00114 16.344L24.0546 26.8914L33.9215 35.7376L30.8593 22.6384L31.1996 0.863098H40.7263L41.0665 22.6384L38.5147 35.5675L48.2116 26.5512L67.265 15.8336L72.0283 24.1695L53.3151 35.3974L40.5562 39.6504L53.3151 43.9034L72.0283 55.1313L67.265 63.4672L48.2116 52.7496L38.5147 43.7333L41.0665 56.6624L40.7263 78.4377H31.1996L30.8593 56.6624L33.9215 43.5632L24.0546 52.4094L5.00114 62.9568Z" fill="#905DFF"/>
</svg>
