<svg width="17" height="18" viewBox="0 0 17 18" fill="none" xmlns="http://www.w3.org/2000/svg">
<path d="M1.91993 14.2505L0.862549 12.4001L5.01653 9.94544L7.77327 9.07687L5.01653 8.20831L0.862549 5.75369L1.91993 3.90327L6.14944 6.24461L8.33972 8.20831L7.65998 5.30052L7.7355 0.466797H9.85026L9.92579 5.30052L9.35933 8.17055L11.5119 6.16909L15.7414 3.78998L16.7987 5.6404L12.6448 8.13279L9.8125 9.07687L12.6448 10.021L16.7987 12.5134L15.7414 14.3638L11.5119 11.9847L9.35933 9.9832L9.92579 12.8532L9.85026 17.687H7.7355L7.65998 12.8532L8.33972 9.94544L6.14944 11.9091L1.91993 14.2505Z" fill="white"/>
</svg>
