<svg width="37" height="39" viewBox="0 0 37 39" fill="none" xmlns="http://www.w3.org/2000/svg">
<path d="M26.2162 29.7298V31.2889C26.2162 35.1553 23.1521 38.3045 19.3902 38.3045H7.25509C3.4932 38.3045 0.429077 35.1553 0.429077 31.2889V18.8167C0.429077 14.9503 3.4932 11.801 7.25509 11.801H10.2889C10.7136 11.801 11.0473 12.144 11.0473 12.5806C11.0473 13.0171 10.7136 13.3601 10.2889 13.3601H7.25509C4.32749 13.3601 1.94597 15.8077 1.94597 18.8167V31.2889C1.94597 34.2978 4.32749 36.7455 7.25509 36.7455H19.3902C22.3178 36.7455 24.6993 34.2978 24.6993 31.2889V29.7298C24.6993 29.2933 25.033 28.9503 25.4578 28.9503C25.8825 28.9503 26.2162 29.2933 26.2162 29.7298ZM35.7271 9.83667L27.5208 1.1217C27.2325 0.809899 26.7471 0.809899 26.4438 1.10611C26.1404 1.40233 26.1404 1.90122 26.4286 2.21302L34.6501 10.928C34.908 11.193 35.0749 11.5048 35.181 11.8478C35.1204 11.8322 35.0445 11.801 34.9687 11.801H19.3902C15.6283 11.801 12.5642 14.9503 12.5642 18.8167V28.1708C12.5642 28.6073 12.8979 28.9503 13.3227 28.9503C13.7474 28.9503 14.0811 28.6073 14.0811 28.1708V18.8167C14.0811 15.8077 16.4626 13.3601 19.3902 13.3601H34.9687C34.9687 13.3601 35.1052 13.3445 35.181 13.3133C35.0749 13.6563 34.908 13.9681 34.6501 14.2331L26.4438 22.9325C26.1555 23.2443 26.1555 23.7276 26.4589 24.0394C26.6106 24.1797 26.7926 24.2577 26.9898 24.2577C27.187 24.2577 27.3842 24.1797 27.5359 24.0238L35.7423 15.3244C37.2137 13.8122 37.2137 11.3333 35.7423 9.82108L35.7271 9.83667Z" fill="url(#paint0_linear_11_263)"/>
<defs>
<linearGradient id="paint0_linear_11_263" x1="-24.5798" y1="68.7616" x2="36.8458" y2="0.885861" gradientUnits="userSpaceOnUse">
<stop stop-color="#B998FF"/>
<stop offset="1" stop-color="#6333CB"/>
</linearGradient>
</defs>
</svg>
