<svg width="73" height="79" viewBox="0 0 73 79" fill="none" xmlns="http://www.w3.org/2000/svg">
<path d="M5.0031 62.6107L0.239746 54.2749L18.9529 43.2171L31.3717 39.3043L18.9529 35.3916L0.239746 24.3338L5.0031 15.9979L24.0565 26.5453L33.9235 35.3916L30.8613 22.2924L31.2015 0.517029H40.7282L41.0685 22.2924L38.5167 35.2215L48.2135 26.2051L67.2669 15.4876L72.0303 23.8234L53.3171 35.0513L40.5581 39.3043L53.3171 43.5573L72.0303 54.7852L67.2669 63.1211L48.2135 52.4036L38.5167 43.3872L41.0685 56.3163L40.7282 78.0916H31.2015L30.8613 56.3163L33.9235 43.2171L24.0565 52.0633L5.0031 62.6107Z" fill="#39F2AE"/>
</svg>
